<svg xmlns="http://www.w3.org/2000/svg" width="18.481" height="18.468" viewBox="0 0 18.481 18.468"><path d="M307.444,16.8h3.835a5.4,5.4,0,0,1,3.287,1.008,5.008,5.008,0,0,1,2.055,3.835c.055.751.033,1.507.033,2.263v5.879a6.06,6.06,0,0,1-.5,2.548,4.871,4.871,0,0,1-3.835,2.838,6.026,6.026,0,0,1-1.1.093h-7.671a5.353,5.353,0,0,1-3.567-1.222,5.041,5.041,0,0,1-1.764-3.342,5.926,5.926,0,0,1-.044-.7V21.96a5.04,5.04,0,0,1,1.589-3.786,4.849,4.849,0,0,1,3.244-1.337c1.468-.049,2.942,0,4.383,0Zm0,16.76h3.5a7.244,7.244,0,0,0,.844-.033,3.4,3.4,0,0,0,2.953-2.087,4.059,4.059,0,0,0,.3-1.611v-7.4a5.318,5.318,0,0,0-.038-.783,3.331,3.331,0,0,0-2.016-2.827,4.2,4.2,0,0,0-1.644-.307h-7.649a5.529,5.529,0,0,0-.74.044,3.189,3.189,0,0,0-2.778,2.109,4.415,4.415,0,0,0-.258,1.6v7.3a6.658,6.658,0,0,0,.038.86,3.205,3.205,0,0,0,2.159,2.876,4.559,4.559,0,0,0,1.578.252Z" transform="translate(-298.178 -16.796)" fill="#b9915b"/><path d="M315.913,29.667a4.767,4.767,0,1,1-4.756-4.767A4.767,4.767,0,0,1,315.913,29.667Zm-4.783,3.041a3.052,3.052,0,1,0-3.03-3.074A3.052,3.052,0,0,0,311.13,32.708Z" transform="translate(-301.887 -20.46)" fill="#b9915b"/><path d="M323.047,24.857a1.1,1.1,0,1,1,1.117-.471A1.1,1.1,0,0,1,323.047,24.857Z" transform="translate(-308.834 -19.459)" fill="#b9915b"/></svg>