<svg xmlns="http://www.w3.org/2000/svg" width="18.109" height="18.042" viewBox="0 0 18.109 18.042"><path d="M228.022,21.829h3.753V33.882h-3.753ZM229.9,15.84a2.192,2.192,0,1,1-2.192,2.192A2.192,2.192,0,0,1,229.9,15.84" transform="translate(-227.71 -15.84)" fill="#b9915b"/><path d="M239.42,26.515h3.605v1.644h.049a3.939,3.939,0,0,1,3.545-1.951c3.791,0,4.493,2.5,4.493,5.742v6.613h-3.759V32.706c0-1.4-.027-3.194-1.945-3.194s-2.252,1.518-2.252,3.09v5.961H239.42Z" transform="translate(-233.003 -20.527)" fill="#b9915b"/></svg>