<svg id="Layer_1" data-name="Layer 1" xmlns="http://www.w3.org/2000/svg" viewBox="0 0 525.8 73.55"><defs><style>.cls-1{fill:#b9915b;}.cls-2{fill:#003d3f;}</style></defs><title>CapitalSavvyArtboard 6</title><path class="cls-1" d="M60.2,7.74a1.61,1.61,0,0,0-.29-.09h0l-3.16,3.92.45.14c.51.16,1,.32,1.57.5V39.26a16.5,16.5,0,0,1-6.17,12.85L37.26,64.43a3,3,0,0,1-1.86.67,2.76,2.76,0,0,1-1.35-.36,2.42,2.42,0,0,1-.5-.31l-3.44-2.76L18.22,52.11a16.51,16.51,0,0,1-6.15-12.85V30.44l-4.7-3.8V39.26a21.14,21.14,0,0,0,7.91,16.51L28.63,66.52l2,1.59a7.69,7.69,0,0,0,9.62,0L55.53,55.77a21.12,21.12,0,0,0,7.91-16.51V8.81ZM44.35,4.25c-.91-.1-1.85-.19-2.78-.26q-3.07-.24-6.17-.24a78.61,78.61,0,0,0-24.8,4l-.1,0-3.13,1v2.47l4.7,3.84V12.21c.92-.31,1.87-.61,2.8-.88A78.31,78.31,0,0,1,23.63,9.4a73.85,73.85,0,0,1,11.77-1c.84,0,1.67,0,2.5.05,1.91.06,3.81.2,5.72.41h0l1.92-2.36,1.55-1.92h0v0Z"/><polygon class="cls-1" points="39.19 52.43 35.64 55.59 12.07 36.5 7.37 32.7 7.37 26.64 12.07 30.44 39.19 52.43"/><polygon class="cls-1" points="29.14 22.96 26.17 26.61 24.34 25.12 12.07 15.12 7.37 11.29 7.37 8.81 10.5 7.77 14.88 11.33 27.32 21.48 29.14 22.96"/><path class="cls-1" d="M47.12,4.62,43.63,8.91h0L24.14,32.82l-3.64-3,3.84-4.73,3-3.64,10.58-13L41.57,4Q44.36,4.22,47.12,4.62Z"/><polygon class="cls-1" points="51.58 41.3 51.29 41.66 48.08 44.51 33.93 32.92 36.88 29.27 40.22 32.01 43.87 34.96 51.58 41.3"/><polygon class="cls-1" points="46.8 45.66 44.23 47.93 34.09 39.61 36.22 36.96 46.8 45.66"/><polygon class="cls-1" points="43.06 48.99 40.46 51.29 30.91 43.54 33.06 40.88 43.06 48.99"/><path class="cls-1" d="M63.44,8.8v1.93l-4.7,5.83L43.87,35l-1.48,1.82-3.64-3L40.22,32v0l16.5-20.42,3.16-3.92h0a1.61,1.61,0,0,1,.29.09Z"/><path class="cls-2" d="M107,21.27c3.85,0,7.56,1.51,11.16,4.51V18.43A22.64,22.64,0,0,0,113,16.2a19.63,19.63,0,0,0-5.54-.79,23.18,23.18,0,0,0-6.17.79A20.59,20.59,0,0,0,90.87,23a21.24,21.24,0,0,0-5.2,14,21.2,21.2,0,0,0,16.2,20.59,22.12,22.12,0,0,0,5.09.57,20.67,20.67,0,0,0,4.91-.57,22.67,22.67,0,0,0,6.29-2.45V47.63c-1,.85-2,1.57-2.9,2.19a16.19,16.19,0,0,1-2.65,1.43A13.2,13.2,0,0,1,107,52.31a14.45,14.45,0,0,1-10.72-4.45A15,15,0,0,1,92,36.92a15.36,15.36,0,0,1,4.36-11.09A14.19,14.19,0,0,1,107,21.27Z"/><path class="cls-2" d="M146.59,16.2h-2.36L125,57.38h6.7l13.58-29.83,13,29.83h6.8Z"/><path class="cls-2" d="M274.17,16.2h-2.36L252.62,57.38h6.7L272.9,27.55l13,29.83h6.82Z"/><path class="cls-1" d="M384.39,16.2H382L362.85,57.38h6.7l13.58-29.83,12.95,29.83h6.8Z"/><path class="cls-2" d="M209.49,16.2V57.38h6.2V16.2Z"/><path class="cls-2" d="M227.32,16.2v5.85h9.46V57.38H243V22.05h9.43V16.2Z"/><path class="cls-2" d="M307.08,51.55V16.2h-6.2V57.38h18.31V51.55Z"/><path class="cls-1" d="M431.05,16.2,419.5,44.75,408.12,16.2h-6.8l16.87,41.37h2.38L437.85,16.2Z"/><path class="cls-1" d="M473.24,16.2,461.69,44.75,450.3,16.2h-6.8l16.87,41.37h2.38L480,16.2Z"/><path class="cls-1" d="M512.49,16.2l-9.43,16.47L493.65,16.2h-7.16l13.44,23.39V57.38h6.22V39.59l13.5-23.39Z"/><path class="cls-2" d="M185.77,16.17c6.92,0,11.72,4.7,11.72,11.65s-5,11.65-12,11.65h-7V57.38h-6.22V16.17Zm-7.31,18.28h5.64c4.46,0,7.07-2.41,7.07-6.63s-2.58-6.56-7-6.56h-5.67Z"/><path class="cls-1" d="M335.64,45.9c.49,3.81,3.87,6.11,8.55,6.11,4.52,0,7.66-2.47,7.66-5.91,0-3-1.87-4.81-6.76-5.93l-4-.92c-7.51-1.69-11-5.58-11-11.63,0-7.28,5.8-12.21,13.93-12.21s13.77,5,13.92,12.38h-6.41c-.32-3.9-3.28-6.25-7.56-6.25s-7.12,2.18-7.12,5.65c0,2.81,1.87,4.61,6.54,5.7l4.06.92c7.89,1.8,11.19,5.3,11.19,11.43,0,7.91-5.63,12.9-14.65,12.9-8.67,0-14.41-4.67-14.73-12.24Z"/></svg>