<svg xmlns="http://www.w3.org/2000/svg" width="300" height="38.618" viewBox="0 0 300 38.618"><g transform="translate(-142 -97.581)"><path d="M64.174,32.422c-.057,0-.113-.057-.17-.057h0l-1.869,2.322a.511.511,0,0,0,.283.057c.283.113.623.17.906.283V50.881A9.5,9.5,0,0,1,59.7,58.413l-9,7.191a1.589,1.589,0,0,1-1.076.4,1.3,1.3,0,0,1-.793-.227,1.238,1.238,0,0,1-.283-.17l-1.982-1.586L39.6,58.413a9.67,9.67,0,0,1-3.624-7.531V45.729L33.2,43.52v7.418a11.284,11.284,0,0,0,.34,2.775,12.3,12.3,0,0,0,4.3,6.852l7.814,6.285,1.133.906a4.645,4.645,0,0,0,5.663,0L61.4,60.564a12.378,12.378,0,0,0,4.643-9.683V33.045Zm-9.287-2.039c-.51-.057-1.076-.113-1.642-.17-1.189-.113-2.435-.113-3.624-.113a46.509,46.509,0,0,0-14.5,2.322h-.057l-1.812.623v1.472l2.775,2.265v-1.7c.566-.17,1.076-.34,1.642-.51,1.7-.453,3.4-.849,5.1-1.133a46.722,46.722,0,0,1,6.908-.566H51.15c1.132.057,2.208.113,3.341.227h0l1.133-1.359.906-1.133h0C55.963,30.5,55.4,30.44,54.887,30.383Z" transform="translate(108.8 67.481)" fill="#b9915b"/><path d="M51.83,68.819l-2.039,1.869L35.975,59.476,33.2,57.267V53.7l2.775,2.265Z" transform="translate(108.8 57.245)" fill="#b9915b"/><path d="M45.941,43.09l-1.7,2.152-1.076-.849L35.975,38.5,33.2,36.3V34.823l1.869-.623,2.548,2.1,7.3,5.946Z" transform="translate(108.8 65.703)" fill="#b9915b"/><path d="M62.372,30.7l-2.038,2.492h0L48.952,47.174,46.8,45.419l2.265-2.775,1.755-2.152,6.172-7.531L59.144,30.3C60.22,30.413,61.3,30.527,62.372,30.7Z" transform="translate(102.901 67.395)" fill="#b9915b"/><path d="M71.062,63.522l-.17.227L68.967,65.39,60.7,58.6l1.755-2.1,1.925,1.586,2.152,1.7Z" transform="translate(96.872 56.03)" fill="#b9915b"/><path d="M68.318,69.5l-1.472,1.359L60.9,65.986,62.146,64.4Z" transform="translate(96.785 52.604)" fill="#b9915b"/><path d="M64.678,73.2l-1.472,1.359L57.6,70.029,58.846,68.5Z" transform="translate(98.217 50.825)" fill="#b9915b"/><path d="M80.139,34.78v1.132l-2.775,3.4L68.7,50.068l-.849,1.076-2.152-1.7.849-1.076h0l9.683-11.948L78.1,34.1h0c.057,0,.113.057.17.057Z" transform="translate(94.703 65.746)" fill="#b9915b"/><path d="M126.671,45.6a10.056,10.056,0,0,1,6.512,2.661v-4.3a13.077,13.077,0,0,0-3.058-1.3A12.681,12.681,0,0,0,126.9,42.2a14.768,14.768,0,0,0-3.624.453,12,12,0,0,0-6.116,3.964,12.424,12.424,0,0,0-3.058,8.211,12.4,12.4,0,0,0,9.456,12.061,12.825,12.825,0,0,0,3,.34,12.571,12.571,0,0,0,2.888-.34,15.423,15.423,0,0,0,3.681-1.416v-4.36c-.623.51-1.133.906-1.7,1.3a14.245,14.245,0,0,1-1.529.849,8.087,8.087,0,0,1-3.284.623,8.376,8.376,0,0,1-6.285-2.6,8.8,8.8,0,0,1-2.548-6.4,9.156,9.156,0,0,1,2.548-6.512A8.335,8.335,0,0,1,126.671,45.6Z" transform="translate(73.71 62.233)" fill="#ebebeb"/><path d="M167.571,42.9h-1.359L155,67.022h3.907l7.928-17.5,7.588,17.5h3.964Z" transform="translate(55.969 61.929)" fill="#ebebeb"/><path d="M299.471,42.9h-1.359L286.9,67.022h3.907l7.928-17.5,7.588,17.5h4.02Z" transform="translate(-1.242 61.929)" fill="#ebebeb"/><path d="M413.471,42.9h-1.359L400.9,67.022h3.907l7.928-17.5,7.588,17.5h3.964Z" transform="translate(-50.689 61.929)" fill="#b9915b"/><path d="M242.2,42.9V67.022h3.624V42.9Z" transform="translate(18.147 61.929)" fill="#ebebeb"/><path d="M260.7,42.9v3.4h5.549V66.966h3.624V46.354h5.549v-3.4H260.7Z" transform="translate(10.122 61.929)" fill="#ebebeb"/><path d="M340.424,63.625V42.9H336.8V67.022h10.7v-3.4Z" transform="translate(-22.886 61.929)" fill="#ebebeb"/><path d="M458.084,42.9l-6.738,16.7-6.682-16.7H440.7l9.853,24.236h1.416L462.1,42.9h-4.02Z" transform="translate(-67.953 61.929)" fill="#b9915b"/><path d="M501.684,42.9l-6.738,16.7-6.682-16.7H484.3l9.853,24.236h1.416L505.648,42.9Z" transform="translate(-86.864 61.929)" fill="#b9915b"/><path d="M543.932,42.9l-5.549,9.626L532.89,42.9H528.7l7.871,13.7V67.022h3.624V56.6l7.927-13.7h-4.19Z" transform="translate(-106.122 61.929)" fill="#b9915b"/><path d="M211.628,42.9a6.5,6.5,0,0,1,6.852,6.8c0,4.02-2.888,6.8-7.022,6.8h-4.134V66.966H203.7V42.9Zm-4.247,10.7h3.284c2.6,0,4.134-1.416,4.134-3.907,0-2.435-1.529-3.851-4.134-3.851h-3.341V53.6Z" transform="translate(34.846 61.929)" fill="#ebebeb"/><path d="M369.837,60.08c.283,2.208,2.265,3.567,4.983,3.567,2.661,0,4.473-1.416,4.473-3.454,0-1.755-1.076-2.831-3.964-3.454l-2.378-.51c-4.417-.963-6.455-3.284-6.455-6.8,0-4.247,3.4-7.135,8.154-7.135,4.87,0,8.041,2.945,8.154,7.248h-3.737c-.17-2.265-1.925-3.681-4.417-3.681-2.435,0-4.19,1.3-4.19,3.284,0,1.642,1.076,2.718,3.85,3.341l2.378.51c4.643,1.076,6.568,3.114,6.568,6.682,0,4.643-3.284,7.531-8.55,7.531-5.1,0-8.437-2.718-8.607-7.191h3.737Z" transform="translate(-35.595 62.19)" fill="#b9915b"/></g></svg>