<?xml version="1.0" encoding="utf-8"?>
<!-- Generator: Adobe Illustrator 22.0.0, SVG Export Plug-In . SVG Version: 6.00 Build 0)  -->
<svg version="1.0" id="Layer_1" xmlns="http://www.w3.org/2000/svg" xmlns:xlink="http://www.w3.org/1999/xlink" x="0px" y="0px"
	 viewBox="0 0 595.3 128" style="enable-background:new 0 0 595.3 128;" xml:space="preserve">
<style type="text/css">
	.st0{fill:#B9915B;}
	.st1{fill:#003D3F;}
</style>
<g>
	<g>
		<path class="st0" d="M38.1,41.8L38.1,41.8l12.7,10.3l-4,4.9l3.8,3.1l20.1-24.7h0l0,0h0l2-2.4l1.1-1.3l0.6-0.7h0v0
			c-1-0.1-1.9-0.3-2.9-0.4c-0.7-0.1-1.4-0.1-2.1-0.2c-0.2,0-0.5-0.1-0.7-0.1l0,0c-2.1-0.2-4.3-0.2-6.4-0.2c-8.7,0-17.4,1.4-25.6,4.1
			l-0.1,0l0,0l-3.2,1.1v2.6l3.8,3.1L38.1,41.8z M62.2,34.9c0.9,0,1.7,0,2.6,0c0,0,0,0,0,0l0,0L53.9,48.4L41,37.9c3-0.8,6-1.5,9-2
			C54.1,35.3,58.2,34.9,62.2,34.9z"/>
		<polygon class="st0" points="74,73.4 63.1,64.4 60.9,67.2 71.4,75.8 		"/>
		<polygon class="st0" points="57.6,71.2 67.5,79.2 70.1,76.8 59.8,68.5 		"/>
		<path class="st0" d="M87.9,34.2c-0.1,0-0.2-0.1-0.3-0.1h0l-3.3,4.1L67.2,59.3v0l-3.5-2.8l-3.1,3.8l14.6,12l3.3-2.9l0.3-0.4l-8-6.6
			l15.4-19v23.5c0,5.2-2.3,10.1-6.4,13.3L64.1,92.8c-0.6,0.5-1.2,0.7-1.9,0.7c-0.5,0-1-0.1-1.4-0.4c-0.2-0.1-0.4-0.2-0.5-0.3
			L56.8,90l-12.3-9.9c-4-3.2-6.4-8.1-6.4-13.3v-2.8l24.4,19.7l3.7-3.3L38.1,57.7l-4.9-3.9V60v6.8c0,1.7,0.2,3.3,0.6,4.9
			c1.1,4.7,3.7,9,7.6,12.1L55.2,95l2,1.6c1.4,1.1,3.2,1.7,5,1.7c1.8,0,3.6-0.6,5-1.7L83,83.9c5.2-4.2,8.2-10.4,8.2-17.1V37.3v-2v0
			L87.9,34.2z"/>
	</g>
	<g>
		<g>
			<path class="st1" d="M136.7,42.1c-2.3,0-4.4,0.3-6.4,0.8c-4.2,1.1-7.8,3.5-10.8,7c-3.6,4.3-5.4,9.1-5.4,14.5
				c0,6.1,2.1,11.2,6.4,15.5c3,3,6.4,4.9,10.3,5.8c1.7,0.4,3.4,0.6,5.3,0.6c1.7,0,3.4-0.2,5.1-0.6c2.2-0.5,4.4-1.4,6.5-2.5v-7.7
				c-1.1,0.9-2,1.6-3,2.3c-0.9,0.6-1.9,1.1-2.7,1.5c-1.6,0.7-3.5,1.1-5.8,1.1c-4.4,0-8.1-1.5-11.1-4.6c-3-3.1-4.5-6.8-4.5-11.3
				c0-4.5,1.5-8.3,4.5-11.5c3-3.1,6.7-4.7,11.1-4.7c4,0,7.8,1.6,11.5,4.7v-7.6c-1.8-1-3.5-1.8-5.4-2.3
				C140.6,42.4,138.7,42.1,136.7,42.1z"/>
			<polygon class="st1" points="174.8,42.9 154.9,85.5 161.9,85.5 175.9,54.7 189.3,85.5 196.3,85.5 177.2,42.9 			"/>
			<polygon class="st1" points="306.7,42.9 286.9,85.5 293.8,85.5 307.8,54.7 321.2,85.5 328.3,85.5 309.1,42.9 			"/>
			<rect x="242.2" y="42.9" class="st1" width="6.4" height="42.6"/>
			<polygon class="st1" points="260.7,49 270.5,49 270.5,85.5 276.9,85.5 276.9,49 286.7,49 286.7,42.9 260.7,42.9 			"/>
			<polygon class="st1" points="343.2,79.5 343.2,42.9 336.8,42.9 336.8,85.5 355.7,85.5 355.7,79.5 			"/>
			<path class="st1" d="M217.7,42.9h-14v42.6h6.4V67h7.3c7.3,0,12.4-4.9,12.4-12C229.8,47.8,224.9,42.9,217.7,42.9z M216,61.8h-5.8
				V48.2h5.9c4.6,0,7.3,2.5,7.3,6.8C223.3,59.3,220.6,61.8,216,61.8z"/>
		</g>
		<g>
			<polygon class="st0" points="420.7,42.9 400.8,85.5 407.8,85.5 421.8,54.7 435.2,85.5 442.2,85.5 423.1,42.9 			"/>
			<polygon class="st0" points="459.4,72.5 447.7,42.9 440.6,42.9 458.1,85.7 460.5,85.7 478.4,42.9 471.4,42.9 			"/>
			<polygon class="st0" points="503.1,72.5 491.3,42.9 484.2,42.9 501.7,85.7 504.1,85.7 522,42.9 515,42.9 			"/>
			<polygon class="st0" points="555.6,42.9 545.8,60 536.1,42.9 528.7,42.9 542.6,67.1 542.6,85.5 549,85.5 549,67.1 563,42.9 			
				"/>
			<path class="st0" d="M384.9,61.2l-4.2-0.9c-4.8-1.1-6.8-3-6.8-5.9c0-3.6,3.1-5.8,7.4-5.8c4.4,0,7.5,2.4,7.8,6.5h6.6
				c-0.2-7.6-5.8-12.8-14.4-12.8c-8.4,0-14.4,5.1-14.4,12.6c0,6.3,3.6,10.3,11.4,12l4.2,0.9c5.1,1.2,7,3.1,7,6.1
				c0,3.6-3.2,6.1-7.9,6.1c-4.8,0-8.3-2.4-8.8-6.3h-6.6c0.3,7.8,6.3,12.7,15.2,12.7c9.3,0,15.1-5.2,15.1-13.3
				C396.4,66.6,393,63,384.9,61.2z"/>
		</g>
	</g>
</g>
</svg>
