<svg id="Layer_1" data-name="Layer 1" xmlns="http://www.w3.org/2000/svg" viewBox="0 0 565.99 91.07"><defs><style>.cls-1{fill:#b9915b;}.cls-2{fill:#003d3f;}</style></defs><title>CapitalSavvyArtboard 5</title><path class="cls-1" d="M76,6.09,75.58,6h0l-4.32,5.33.63.2c.69.2,1.41.43,2.12.67V48.9a22.47,22.47,0,0,1-8.36,17.47L44.83,83.11A4.11,4.11,0,0,1,42.3,84a3.84,3.84,0,0,1-1.84-.47,3.3,3.3,0,0,1-.68-.42l-4.67-3.76L19,66.37A22.48,22.48,0,0,1,10.6,48.9V37L4.22,31.76V48.9A28.66,28.66,0,0,0,15,71.33l18.15,14.6,2.66,2.16a10.43,10.43,0,0,0,13.07,0L69.63,71.33A28.63,28.63,0,0,0,80.39,48.9V7.55ZM50.68,1Q46.5.69,42.3.68A107.4,107.4,0,0,0,8.61,6.09l-.13,0L4.22,7.55v3.36l6.38,5.2V12.16c1.26-.42,2.54-.82,3.81-1.18a102.47,102.47,0,0,1,11.9-2.64,100.91,100.91,0,0,1,16-1.27c1.14,0,2.25,0,3.38.06,2.61.08,5.2.27,7.78.55h0l4.74-5.82Q54.47,1.31,50.68,1Z"/><polygon class="cls-1" points="49.26 68.27 44.19 72.36 10.6 45.16 4.22 39.99 4.22 31.77 10.6 36.94 49.26 68.27"/><polygon class="cls-1" points="33.79 26.77 29.77 31.73 27.27 29.71 10.6 16.12 4.22 10.91 4.22 7.54 8.48 6.14 14.42 10.98 31.32 24.76 33.79 26.77"/><path class="cls-1" d="M58.22,1.86,53.48,7.69h0L27,40.17l-4.95-4,5.22-6.42,4.05-4.95L45.69,7.13l5-6.13C53.21,1.2,55.71,1.49,58.22,1.86Z"/><polygon class="cls-1" points="64.28 51.68 60.27 56.66 40.29 40.29 44.31 35.34 48.85 39.05 53.8 43.07 64.28 51.68"/><polygon class="cls-1" points="58.81 58.46 55.93 62.04 40.51 49.38 43.4 45.78 58.81 58.46"/><polygon class="cls-1" points="54.61 63.67 53.94 64.5 51.08 66.8 36.2 54.73 39.11 51.13 54.61 63.67"/><path class="cls-1" d="M80.39,7.54v2.62L74,18.07l-20.2,25-2,2.48-5-4,2-2.49L71.25,11.3,75.56,6h0a3.24,3.24,0,0,1,.41.13Z"/><path class="cls-1" d="M101.25,81.39l-4.2-6.46h1l3.65,5.67,3.67-5.67h1l-4.22,6.46v4.32h-.84Z"/><path class="cls-1" d="M124.37,80.33a5.45,5.45,0,1,1-10.89,0,5.45,5.45,0,1,1,10.89,0Zm-10.07,0a4.64,4.64,0,1,0,9.27,0,4.64,4.64,0,1,0-9.27,0Z"/><path class="cls-1" d="M141.57,74.92v6.71c0,5.64-8.26,5.65-8.26,0V74.92h.82v6.71a3.32,3.32,0,1,0,6.63,0V74.92Z"/><path class="cls-1" d="M159.64,85.71h-1.09l-3.74-4.08h-2.94v4.08H151V74.92h4.75a3.33,3.33,0,0,1,3.54,3.36,3.18,3.18,0,0,1-3.5,3.3Zm-7.77-4.87h3.82a2.41,2.41,0,0,0,2.73-2.58,2.48,2.48,0,0,0-2.63-2.57h-3.92Z"/><path class="cls-1" d="M187.82,85.71h-1.09L183,81.63h-2.95v4.08h-.83V74.92H184a3.33,3.33,0,0,1,3.54,3.36,3.18,3.18,0,0,1-3.49,3.3Zm-7.77-4.87h3.83a2.42,2.42,0,0,0,2.73-2.58A2.49,2.49,0,0,0,184,75.69h-3.92Z"/><path class="cls-1" d="M196.38,85.71V74.92h.82V85.71Z"/><path class="cls-1" d="M215.16,76.91a5,5,0,0,0-3.47-1.39,4.55,4.55,0,0,0-4.76,4.81,4.49,4.49,0,0,0,4.76,4.73A4.83,4.83,0,0,0,215,83.81v-3h-3.76v-.72h4.55v4a5.59,5.59,0,0,1-4.07,1.74,5.54,5.54,0,1,1,0-11.08,5.62,5.62,0,0,1,3.95,1.61Z"/><path class="cls-1" d="M232.82,85.71v-4.9H226v4.9h-.84V74.92H226v5.13h6.87V74.92h.83V85.71Z"/><path class="cls-1" d="M246,75.67h-3.9v-.74h8.64v.74h-3.9v10H246Z"/><path class="cls-1" d="M270.52,85.71V74.92h.82V85.71Z"/><path class="cls-1" d="M281.21,74.92l7.26,8.93V74.92h.81V85.71H289l-7.28-8.91v8.91h-.83V74.92Z"/><path class="cls-1" d="M307.55,74.92l-4.44,10.82h-.89l-4.44-10.82h.89l4,9.87,4-9.87Z"/><path class="cls-1" d="M316.78,79.9h6.33v.75h-6.33v4.26h6.82v.8H316V74.92h7.44v.79h-6.63Z"/><path class="cls-1" d="M339.14,77a3.48,3.48,0,0,0-3.26-1.46c-1.27,0-3.27.46-3.27,2.19,0,1.37,1.48,1.69,3.3,2,2.08.4,4.24.77,4.24,3.1s-2.47,3-4.27,3a4.86,4.86,0,0,1-4.43-2.34l.74-.37a4.23,4.23,0,0,0,3.69,2c1.32,0,3.43-.38,3.43-2.29,0-1.62-1.77-2-3.54-2.31-2-.38-4-.79-4-2.77,0-2.29,2.32-3,4.1-3a4.13,4.13,0,0,1,3.94,1.83Z"/><path class="cls-1" d="M351.77,75.67h-3.9v-.74h8.63v.74h-3.9v10h-.83Z"/><path class="cls-1" d="M374.4,76.12l-4.13,6.32H370l-4.16-6.32v9.59H365V74.92h1l4.13,6.29,4.09-6.29h1V85.71h-.82Z"/><path class="cls-1" d="M385.58,79.9h6.32v.75h-6.32v4.26h6.81v.8h-7.63V74.92h7.45v.79h-6.63Z"/><path class="cls-1" d="M401.36,74.92l7.26,8.93V74.92h.82V85.71h-.32l-7.28-8.91v8.91H401V74.92Z"/><path class="cls-1" d="M421.83,75.67h-3.9v-.74h8.63v.74h-3.9v10h-.83Z"/><path class="cls-1" d="M447.14,82v3.73h-.83V74.92H451c4.69,0,4.69,7.06,0,7.06Zm0-6.29v5.53H451c3.6,0,3.6-5.53,0-5.53Z"/><path class="cls-1" d="M471.05,85.71l-1.19-2.65h-6.44l-1.17,2.65h-.9l4.85-10.79h.9L472,85.71Zm-1.51-3.42-2.9-6.57-2.9,6.57Z"/><path class="cls-1" d="M488.86,85.71h-1.09L484,81.63h-3v4.08h-.83V74.92H485a3.34,3.34,0,0,1,3.55,3.36,3.19,3.19,0,0,1-3.5,3.3Zm-7.77-4.87h3.83a2.42,2.42,0,0,0,2.73-2.58A2.49,2.49,0,0,0,485,75.69h-3.92Z"/><path class="cls-1" d="M500.11,75.67h-3.9v-.74h8.63v.74h-3.9v10h-.83Z"/><path class="cls-1" d="M513.69,74.92,521,83.85V74.92h.82V85.71h-.33l-7.27-8.91v8.91h-.83V74.92Z"/><path class="cls-1" d="M532.14,79.9h6.32v.75h-6.32v4.26H539v.8h-7.63V74.92h7.45v.79h-6.63Z"/><path class="cls-1" d="M556.17,85.71h-1.09l-3.74-4.08H548.4v4.08h-.83V74.92h4.75a3.33,3.33,0,0,1,3.54,3.36,3.18,3.18,0,0,1-3.5,3.3Zm-7.77-4.87h3.82A2.41,2.41,0,0,0,555,78.26a2.48,2.48,0,0,0-2.63-2.57H548.4Z"/><path class="cls-2" d="M119.73,11.45c4.13,0,8.1,1.61,12,4.83V8.41A23.86,23.86,0,0,0,126.15,6a21,21,0,0,0-5.94-.85A24.68,24.68,0,0,0,113.6,6a22.08,22.08,0,0,0-11.14,7.23,22.71,22.71,0,0,0-5.57,15,22.7,22.7,0,0,0,17.36,22.06,24,24,0,0,0,5.45.6,22.64,22.64,0,0,0,5.26-.6,24.62,24.62,0,0,0,6.73-2.63v-8c-1.1.9-2.12,1.68-3.1,2.34a17.37,17.37,0,0,1-2.84,1.53,14.18,14.18,0,0,1-6,1.14,15.48,15.48,0,0,1-11.48-4.77,16,16,0,0,1-4.68-11.71,16.43,16.43,0,0,1,4.68-11.88A15.18,15.18,0,0,1,119.73,11.45Z"/><path class="cls-2" d="M162.15,6h-2.53L139.07,50.13h7.17l14.55-32,13.89,32H182Z"/><path class="cls-2" d="M298.82,6h-2.54L275.73,50.13h7.17l14.55-32,13.87,32h7.31Z"/><path class="cls-1" d="M416.88,6h-2.54L393.81,50.13H401l14.55-32,13.87,32h7.29Z"/><path class="cls-2" d="M229.52,6V50.13h6.64V6Z"/><path class="cls-2" d="M248.62,6v6.27h10.14V50.13h6.67V12.29h10.1V6Z"/><path class="cls-2" d="M334.06,43.89V6h-6.64V50.13H347V43.89Z"/><path class="cls-1" d="M466.86,6,454.49,36.6,442.3,6H435l18.07,44.32h2.55L474.15,6Z"/><path class="cls-1" d="M512.06,6,499.69,36.6,487.48,6H480.2l18.07,44.32h2.55L519.33,6Z"/><path class="cls-1" d="M554.11,6,544,23.66,533.92,6h-7.66l14.4,25.06V50.13h6.66V31.08L561.77,6Z"/><path class="cls-2" d="M204.11,6c7.42,0,12.56,5,12.56,12.48s-5.3,12.48-12.84,12.48h-7.54V50.13h-6.67V6Zm-7.82,19.59h6c4.78,0,7.57-2.59,7.57-7.11s-2.76-7-7.54-7h-6.07Z"/><path class="cls-1" d="M364.66,37.83c.53,4.09,4.15,6.54,9.15,6.54S382,41.73,382,38.05c0-3.19-2-5.16-7.23-6.35l-4.31-1c-8.05-1.81-11.8-6-11.8-12.46,0-7.8,6.2-13.08,14.91-13.08,8.88,0,14.75,5.34,14.92,13.26h-6.88c-.33-4.17-3.5-6.69-8.09-6.69s-7.63,2.33-7.63,6c0,3,2,4.94,7,6.11l4.35,1c8.45,1.93,12,5.68,12,12.25,0,8.47-6,13.81-15.7,13.81-9.29,0-15.44-5-15.77-13.11Z"/></svg>