<svg xmlns="http://www.w3.org/2000/svg" width="20.206" height="16.401" viewBox="0 0 20.206 16.401"><path d="M176.606,21.768a8.262,8.262,0,0,1-2.378.652,4.137,4.137,0,0,0,1.819-2.29,8.081,8.081,0,0,1-2.63,1,4.142,4.142,0,0,0-7.161,2.833,4.071,4.071,0,0,0,.11.942,11.752,11.752,0,0,1-8.542-4.323,4.148,4.148,0,0,0,1.282,5.528,4.1,4.1,0,0,1-1.874-.521v.055a4.142,4.142,0,0,0,3.331,4.06,4.191,4.191,0,0,1-1.1.142,4.027,4.027,0,0,1-.778-.071,4.148,4.148,0,0,0,3.835,2.876,8.312,8.312,0,0,1-6.125,1.709,11.778,11.778,0,0,0,18.135-9.917V23.9a8.443,8.443,0,0,0,2.071-2.131Z" transform="translate(-156.4 -19.826)" fill="#b9915b"/></svg>