<svg xmlns="http://www.w3.org/2000/svg" width="21.149" height="14.81" viewBox="0 0 21.149 14.81"><path d="M33.91,21.582a2.646,2.646,0,0,0-1.874-1.868c-1.644-.444-8.262-.444-8.262-.444s-6.613,0-8.262.444a2.641,2.641,0,0,0-1.868,1.868,27.42,27.42,0,0,0-.444,5.1,27.4,27.4,0,0,0,.444,5.09,2.641,2.641,0,0,0,1.868,1.868c1.644.444,8.262.444,8.262.444s6.613,0,8.262-.444a2.646,2.646,0,0,0,1.874-1.868,27.707,27.707,0,0,0,.438-5.09A25.88,25.88,0,0,0,33.91,21.582Z" transform="translate(-13.2 -19.27)" fill="#b9915b"/><path d="M28.68,33.345l5.5-3.172L28.68,27Z" transform="translate(-20.198 -22.765)" fill="#333646"/></svg>